<svg width="533" height="413" viewBox="0 0 533 413" fill="none" xmlns="http://www.w3.org/2000/svg">
<g id="undraw_Chat_bot_re_e2gj 1" clip-path="url(#clip0)">
<path id="Vector" d="M152.912 85.2332C150.342 80.5095 146.71 76.1389 146.48 70.31C146.269 64.9638 149.079 59.6559 147.894 54.5412C146.983 50.6086 143.976 48.2357 141.039 46.9791C135.414 44.6079 129.396 44.9366 123.916 47.9142L124.214 47.6167C120.87 45.9269 116.961 47.6713 114.33 50.9024C111.698 54.1333 110.135 58.6119 108.921 63.0999C107.708 67.5879 106.768 72.24 105.082 76.4475C103.396 80.6551 100.814 84.4814 97.4085 85.9356C98.5487 89.1618 102.113 90.2686 104.203 88.0455C104.737 87.4303 105.217 86.7263 105.633 85.9488C107.027 83.5439 108.422 81.139 109.816 78.7341C111.251 82.3535 109.107 87.3489 110.871 90.6996C111.78 92.4276 113.441 93.0838 114.983 93.5544C127.038 97.2031 139.543 96.5452 151.375 91.6397C152.325 91.2422 153.375 90.6948 153.769 89.4739C154.225 88.0644 153.587 86.4753 152.912 85.2332Z" fill="#2F2E41"/>
<path id="Vector_2" d="M187.093 103.667C187.018 104.137 186.969 104.614 186.946 105.094L160.598 126.657L154.193 121.427L147.366 134.106L158.069 144.927C158.934 145.801 159.975 146.254 161.037 146.218C162.098 146.181 163.123 145.657 163.956 144.724L191.126 114.318C192.352 114.962 193.688 115.061 194.955 114.602C196.221 114.143 197.36 113.148 198.218 111.749C199.076 110.35 199.614 108.613 199.76 106.77C199.905 104.927 199.652 103.065 199.033 101.431C198.415 99.7969 197.46 98.4689 196.296 97.6235C195.132 96.7781 193.815 96.4554 192.519 96.6981C191.222 96.9409 190.009 97.7378 189.04 98.9827C188.071 100.228 187.391 101.862 187.093 103.667Z" fill="#FFB7B7"/>
<path id="Vector_3" d="M159.717 127.678L151.201 143.334C150.959 143.78 150.652 144.146 150.301 144.408C149.95 144.669 149.563 144.821 149.167 144.852C148.771 144.882 148.375 144.792 148.006 144.586C147.636 144.38 147.303 144.064 147.028 143.658L137.387 129.458C135.785 127.687 134.744 125.088 134.492 122.229C134.24 119.371 134.798 116.488 136.043 114.212C137.288 111.937 139.119 110.455 141.134 110.093C143.148 109.73 145.182 110.516 146.788 112.279L158.879 121.869C159.226 122.144 159.526 122.521 159.76 122.976C159.994 123.43 160.156 123.95 160.236 124.502C160.315 125.053 160.31 125.622 160.22 126.17C160.131 126.718 159.959 127.232 159.717 127.678H159.717Z" fill="#101010"/>
<path id="Vector_4" d="M147.997 400.468L155.517 400.467L159.094 359.323L147.996 359.324L147.997 400.468Z" fill="#FFB7B7"/>
<path id="Vector_5" d="M146.079 396.985L160.888 396.984H160.888C163.391 396.985 165.792 398.395 167.561 400.906C169.331 403.416 170.326 406.821 170.326 410.372V410.807L146.079 410.808L146.079 396.985Z" fill="#2F2E41"/>
<path id="Vector_6" d="M96.4746 400.468L103.994 400.467L107.572 359.323L96.4733 359.324L96.4746 400.468Z" fill="#FFB7B7"/>
<path id="Vector_7" d="M94.5563 396.985L109.365 396.984H109.366C111.869 396.985 114.269 398.395 116.039 400.906C117.809 403.416 118.803 406.821 118.803 410.372V410.807L94.5567 410.808L94.5563 396.985Z" fill="#2F2E41"/>
<path id="Vector_8" d="M143.481 79.4167C144.264 69.2961 139.115 60.1911 131.981 59.0801C124.846 57.9692 118.428 65.2729 117.645 75.3935C116.861 85.5142 122.01 94.6191 129.145 95.7301C136.279 96.8411 142.698 89.5373 143.481 79.4167Z" fill="#FFB7B7"/>
<path id="Vector_9" d="M138.167 105.041L145.823 110.422C145.823 110.422 154.377 131.51 149.47 151.522C147.088 161.238 153.797 192.209 153.797 192.209C153.797 192.209 164.191 332.498 164.224 375.795C151.31 378.612 139.043 382.092 138.43 373.391C137.816 364.691 131.102 261.815 131.102 261.815C131.102 261.815 121.869 376.002 114.509 377.742C107.148 379.482 92.4276 376.872 92.4276 376.872C92.4276 376.872 104.114 209.611 112.088 199.17L113.315 190.469L113.282 112.368L122.469 106.149L138.167 105.041Z" fill="#2F2E41"/>
<path id="Vector_10" d="M110.778 223.607C111.626 222.957 112.362 222.051 112.936 220.953C113.509 219.856 113.907 218.593 114.099 217.254C114.291 215.915 114.275 214.533 114.05 213.204C113.825 211.875 113.397 210.633 112.797 209.564L121.701 125.373L110.068 124.581L103.127 208.423C101.928 209.972 101.171 212.091 101 214.379C100.829 216.667 101.255 218.964 102.198 220.836C103.142 222.707 104.536 224.023 106.117 224.534C107.699 225.045 109.357 224.715 110.778 223.607V223.607Z" fill="#FFB7B7"/>
<path id="Vector_11" d="M121.448 146.468L107.536 145.222C107.14 145.187 106.754 145.031 106.405 144.765C106.055 144.499 105.75 144.129 105.51 143.681C105.271 143.232 105.102 142.716 105.016 142.167C104.929 141.618 104.928 141.049 105.01 140.498L107.909 121.217C108.048 118.345 108.985 115.668 110.513 113.773C112.041 111.879 114.037 110.922 116.062 111.112C118.087 111.301 119.977 112.623 121.316 114.786C122.655 116.949 123.335 119.778 123.207 122.651L124.373 142.232C124.406 142.793 124.354 143.357 124.219 143.887C124.085 144.416 123.872 144.898 123.594 145.3C123.317 145.702 122.981 146.015 122.611 146.216C122.241 146.418 121.844 146.504 121.448 146.468L121.448 146.468Z" fill="#101010"/>
<path id="Vector_12" d="M505.954 66.6341H198.295C196.05 66.6341 193.896 67.8997 192.308 70.1525C190.719 72.4052 189.827 75.4606 189.827 78.6464V321.815C189.827 325 190.719 328.056 192.308 330.309C193.896 332.561 196.05 333.827 198.295 333.827H505.954C508.2 333.827 510.354 332.561 511.942 330.309C513.53 328.056 514.422 325 514.422 321.815V78.6464C514.422 75.4606 513.53 72.4052 511.942 70.1525C510.354 67.8997 508.2 66.6341 505.954 66.6341V66.6341Z" fill="#3F3D56"/>
<path id="Vector_13" d="M503.069 87.8631H201.18V329.435H503.069V87.8631Z" fill="white"/>
<path id="Vector_14" d="M351.867 81.2748C353.577 81.2748 354.963 79.3083 354.963 76.8826C354.963 74.4569 353.577 72.4904 351.867 72.4904C350.157 72.4904 348.771 74.4569 348.771 76.8826C348.771 79.3083 350.157 81.2748 351.867 81.2748Z" fill="white"/>
<path id="Vector_15" d="M416.734 329.435H201.18V87.8631L416.734 329.435Z" fill="#F2F2F2"/>
<path id="Vector_16" d="M522.899 325.043H493.436V322.031C493.436 321.873 493.392 321.721 493.313 321.609C493.234 321.497 493.127 321.434 493.015 321.434H482.914C482.859 321.434 482.804 321.45 482.753 321.48C482.702 321.51 482.655 321.554 482.616 321.609C482.577 321.665 482.546 321.73 482.525 321.803C482.504 321.875 482.493 321.953 482.493 322.031V325.043H476.18V322.031C476.18 321.953 476.169 321.875 476.148 321.803C476.126 321.73 476.095 321.665 476.056 321.609C476.017 321.554 475.971 321.51 475.92 321.48C475.869 321.45 475.814 321.434 475.759 321.434H465.657C465.602 321.434 465.547 321.45 465.496 321.48C465.445 321.51 465.399 321.554 465.36 321.609C465.321 321.665 465.29 321.73 465.269 321.803C465.247 321.875 465.237 321.953 465.237 322.031V322.031V325.043H458.923V322.031C458.923 321.953 458.912 321.875 458.891 321.803C458.87 321.73 458.839 321.665 458.8 321.609C458.761 321.554 458.714 321.51 458.663 321.48C458.612 321.45 458.558 321.434 458.502 321.434H448.401C448.346 321.434 448.291 321.45 448.24 321.48C448.189 321.51 448.142 321.554 448.103 321.609C448.064 321.665 448.033 321.73 448.012 321.803C447.991 321.875 447.98 321.953 447.98 322.031V322.031V325.043H441.667V322.031C441.667 321.953 441.656 321.875 441.635 321.803C441.613 321.73 441.582 321.665 441.543 321.609C441.504 321.554 441.458 321.51 441.407 321.48C441.356 321.45 441.301 321.434 441.246 321.434H431.144C431.089 321.434 431.034 321.45 430.983 321.48C430.932 321.51 430.886 321.554 430.847 321.609C430.808 321.665 430.777 321.73 430.755 321.803C430.734 321.875 430.723 321.953 430.723 322.031V325.043H424.41V322.031C424.41 321.953 424.399 321.875 424.378 321.803C424.357 321.73 424.326 321.665 424.287 321.609C424.248 321.554 424.201 321.51 424.15 321.48C424.099 321.45 424.044 321.434 423.989 321.434H413.888C413.833 321.434 413.778 321.45 413.727 321.48C413.676 321.51 413.629 321.554 413.59 321.609C413.551 321.665 413.52 321.73 413.499 321.803C413.478 321.875 413.467 321.953 413.467 322.031V322.031V325.043H407.154V322.031C407.154 321.953 407.143 321.875 407.122 321.803C407.1 321.73 407.069 321.665 407.03 321.609C406.991 321.554 406.945 321.51 406.894 321.48C406.843 321.45 406.788 321.434 406.733 321.434H396.631C396.576 321.434 396.521 321.45 396.47 321.48C396.419 321.51 396.373 321.554 396.334 321.609C396.295 321.665 396.264 321.73 396.242 321.803C396.221 321.875 396.21 321.953 396.21 322.031V322.031V325.043H389.897V322.031C389.897 321.953 389.886 321.875 389.865 321.803C389.844 321.73 389.813 321.665 389.774 321.609C389.735 321.554 389.688 321.51 389.637 321.48C389.586 321.45 389.531 321.434 389.476 321.434H310.349C310.293 321.434 310.239 321.45 310.188 321.48C310.136 321.51 310.09 321.554 310.051 321.609C310.012 321.665 309.981 321.73 309.96 321.803C309.939 321.875 309.928 321.953 309.928 322.031V322.031V325.043H303.614V322.031C303.614 321.953 303.603 321.875 303.582 321.803C303.561 321.73 303.53 321.665 303.491 321.609C303.452 321.554 303.406 321.51 303.355 321.48C303.303 321.45 303.249 321.434 303.193 321.434H293.092C293.037 321.434 292.982 321.45 292.931 321.48C292.88 321.51 292.834 321.554 292.794 321.609C292.755 321.665 292.724 321.73 292.703 321.803C292.682 321.875 292.671 321.953 292.671 322.031V322.031V325.043H286.358V322.031C286.358 321.953 286.347 321.875 286.326 321.803C286.305 321.73 286.274 321.665 286.235 321.609C286.195 321.554 286.149 321.51 286.098 321.48C286.047 321.45 285.992 321.434 285.937 321.434H275.836C275.78 321.434 275.726 321.45 275.674 321.48C275.623 321.51 275.577 321.554 275.538 321.609C275.499 321.665 275.468 321.73 275.447 321.803C275.426 321.875 275.415 321.953 275.415 322.031V322.031V325.043H269.101V322.031C269.101 321.953 269.09 321.875 269.069 321.803C269.048 321.73 269.017 321.665 268.978 321.609C268.939 321.554 268.892 321.51 268.841 321.48C268.79 321.45 268.736 321.434 268.68 321.434H258.579C258.524 321.434 258.469 321.45 258.418 321.48C258.367 321.51 258.32 321.554 258.281 321.609C258.242 321.665 258.211 321.73 258.19 321.803C258.169 321.875 258.158 321.953 258.158 322.031V322.031V325.043H251.845V322.031C251.845 321.953 251.834 321.875 251.813 321.803C251.792 321.73 251.761 321.665 251.721 321.609C251.682 321.554 251.636 321.51 251.585 321.48C251.534 321.45 251.479 321.434 251.424 321.434H241.322C241.267 321.434 241.212 321.45 241.161 321.48C241.11 321.51 241.064 321.554 241.025 321.609C240.986 321.665 240.955 321.73 240.934 321.803C240.912 321.875 240.902 321.953 240.902 322.031V322.031V325.043H234.588V322.031C234.588 321.953 234.577 321.875 234.556 321.803C234.535 321.73 234.504 321.665 234.465 321.609C234.426 321.554 234.379 321.51 234.328 321.48C234.277 321.45 234.223 321.434 234.167 321.434H224.066C223.954 321.434 223.847 321.497 223.768 321.609C223.689 321.721 223.645 321.873 223.645 322.031V325.043H217.332V322.031C217.332 321.953 217.321 321.875 217.3 321.803C217.279 321.73 217.248 321.665 217.208 321.609C217.169 321.554 217.123 321.51 217.072 321.48C217.021 321.45 216.966 321.434 216.911 321.434H206.809C206.698 321.434 206.591 321.497 206.512 321.609C206.433 321.721 206.389 321.873 206.388 322.031V325.043H187.028C185.701 325.043 184.387 325.413 183.162 326.133C181.936 326.853 180.823 327.909 179.885 329.239C178.947 330.57 178.203 332.15 177.695 333.888C177.187 335.627 176.926 337.49 176.926 339.372V345.851C176.926 349.651 177.99 353.296 179.885 355.983C181.779 358.67 184.348 360.18 187.028 360.18H522.899C525.578 360.18 528.147 358.67 530.041 355.983C531.936 353.296 533 349.651 533 345.851V339.372C533 337.49 532.739 335.627 532.231 333.888C531.723 332.15 530.979 330.57 530.041 329.239C529.103 327.909 527.99 326.853 526.764 326.133C525.539 325.413 524.225 325.043 522.899 325.043V325.043Z" fill="#3F3D56"/>
<path id="Vector_17" d="M357.932 297.759C357.831 298.099 357.717 298.431 357.592 298.754C356.933 300.478 356.003 301.963 354.873 303.093C353.535 304.428 351.964 305.217 350.332 305.373C348.7 305.529 347.068 305.046 345.616 303.977C344.164 302.908 342.947 301.293 342.098 299.31C341.248 297.327 340.799 295.05 340.799 292.73V290.684H342.022C346.776 295.043 352.275 297.488 357.932 297.759Z" fill="#3F3D56"/>
<path id="Vector_18" d="M375.391 291.283V292.73C375.391 295.545 374.731 298.281 373.513 300.505C372.295 302.729 370.59 304.314 368.666 305.009C366.743 305.705 364.711 305.471 362.891 304.346C361.072 303.22 359.568 301.267 358.619 298.794C358.488 298.463 358.37 298.123 358.265 297.774C358.526 297.784 358.783 297.789 359.045 297.789C364.812 297.799 370.469 295.547 375.391 291.283V291.283Z" fill="#3F3D56"/>
<path id="Vector_19" d="M387.425 138.334C387.157 138.279 386.885 138.243 386.613 138.218C389.703 148.318 389.917 159.723 387.211 170.043C387.483 169.997 387.751 169.936 388.019 169.865C390.639 169.145 392.994 167.129 394.665 164.177C396.335 161.225 397.213 157.527 397.142 153.743C397.071 149.958 396.055 146.333 394.276 143.511C392.496 140.689 390.069 138.855 387.425 138.334V138.334Z" fill="#3F3D56"/>
<path id="Vector_20" d="M331.476 138.218C331.204 138.243 330.932 138.279 330.664 138.334C328.02 138.855 325.593 140.69 323.813 143.511C322.034 146.333 321.019 149.958 320.947 153.743C320.876 157.527 321.754 161.225 323.424 164.177C325.095 167.129 327.45 169.145 330.07 169.865C330.338 169.936 330.606 169.997 330.878 170.043C328.172 159.723 328.386 148.318 331.476 138.218V138.218Z" fill="#3F3D56"/>
<path id="Vector_21" d="M387.425 138.334C384.478 128.348 379.019 120.272 372.109 115.675C365.199 111.079 357.331 110.29 350.034 113.463C342.737 116.635 336.532 123.542 332.623 132.841C328.715 142.14 327.384 153.168 328.887 163.783C330.39 174.397 334.622 183.84 340.758 190.276C346.895 196.713 354.5 199.684 362.094 198.612C369.689 197.54 376.731 192.501 381.854 184.476C386.976 176.45 389.812 166.01 389.812 155.183C389.81 149.398 388.999 143.671 387.425 138.334ZM387.211 170.043C384.594 180.022 379.439 188.25 372.76 193.107C366.081 197.965 358.362 199.1 351.122 196.29C343.883 193.48 337.647 186.927 333.642 177.922C329.638 168.917 328.154 158.112 329.484 147.634C330.813 137.155 334.86 127.762 340.826 121.303C346.793 114.844 354.248 111.787 361.724 112.733C369.2 113.68 376.155 118.562 381.221 126.418C386.287 134.275 389.096 144.536 389.096 155.183C389.095 160.256 388.457 165.288 387.211 170.043V170.043Z" fill="#3F3D56"/>
<path id="Vector_22" d="M374.786 145.287H343.303C341.643 145.287 340.05 146.223 338.876 147.888C337.702 149.554 337.042 151.813 337.042 154.168C337.042 156.524 337.702 158.783 338.876 160.448C340.05 162.114 341.643 163.049 343.303 163.049H374.786C376.446 163.049 378.039 162.114 379.213 160.448C380.387 158.783 381.047 156.524 381.047 154.168C381.047 151.813 380.387 149.554 379.213 147.888C378.039 146.223 376.446 145.287 374.786 145.287V145.287Z" fill="#3F3D56"/>
<path id="Vector_23" d="M387.211 231.023C387.096 230.724 386.978 230.43 386.857 230.14C386.853 230.13 386.849 230.125 386.846 230.115C384.031 223.279 380.011 217.6 375.182 213.633C370.352 209.666 364.878 207.549 359.298 207.49C353.717 207.43 348.222 209.43 343.35 213.293C338.479 217.155 334.4 222.749 331.512 229.523C328.625 236.298 327.029 244.021 326.881 251.934C326.733 259.848 328.038 267.68 330.669 274.662C333.299 281.645 337.164 287.537 341.884 291.76C346.604 295.984 352.017 298.394 357.592 298.753C357.932 298.779 358.275 298.794 358.619 298.794C358.762 298.804 358.901 298.804 359.045 298.804C364.796 298.816 370.443 296.626 375.391 292.466C380.764 287.954 385.105 281.337 387.891 273.409C387.894 273.399 387.898 273.394 387.901 273.384C388.009 273.079 388.112 272.77 388.216 272.455C390.368 265.927 391.399 258.77 391.224 251.568C391.049 244.366 389.674 237.326 387.211 231.023H387.211ZM387.518 272.176C387.415 272.491 387.307 272.8 387.197 273.105C384.535 280.609 380.446 286.907 375.391 291.283C370.469 295.547 364.812 297.799 359.045 297.789C358.783 297.789 358.526 297.784 358.265 297.774C358.154 297.774 358.043 297.769 357.932 297.759C352.469 297.488 347.151 295.205 342.499 291.133C337.848 287.061 334.024 281.342 331.403 274.538C328.783 267.734 327.457 260.079 327.555 252.327C327.653 244.575 329.172 236.992 331.963 230.326C334.754 223.66 338.72 218.139 343.471 214.306C348.223 210.474 353.596 208.463 359.061 208.47C364.527 208.478 369.897 210.503 374.643 214.348C379.39 218.193 383.349 223.725 386.13 230.399C386.134 230.409 386.138 230.414 386.141 230.424C386.266 230.714 386.388 231.008 386.503 231.302C388.958 237.507 390.331 244.454 390.508 251.564C390.685 258.675 389.66 265.742 387.518 272.176Z" fill="#3F3D56"/>
<path id="Vector_24" d="M383.791 232.373C383.164 231.74 382.414 231.397 381.644 231.394H367.573C366.593 231.394 365.653 231.946 364.96 232.929C364.267 233.912 363.878 235.246 363.878 236.636C363.878 238.027 364.267 239.36 364.96 240.343C365.653 241.326 366.593 241.879 367.573 241.879H381.644C381.895 241.88 382.146 241.844 382.392 241.772C382.637 241.697 382.876 241.59 383.107 241.452C383.709 241.085 384.231 240.497 384.619 239.749C385.008 239.001 385.249 238.12 385.319 237.196C385.388 236.272 385.284 235.339 385.015 234.491C384.746 233.644 384.324 232.913 383.791 232.373L383.791 232.373Z" fill="#3F3D56"/>
<path id="Vector_25" d="M368.51 239.297C369.546 239.297 370.387 238.106 370.387 236.636C370.387 235.166 369.546 233.974 368.51 233.974C367.474 233.974 366.634 235.166 366.634 236.636C366.634 238.106 367.474 239.297 368.51 239.297Z" fill="#F1F1F1"/>
<path id="Vector_26" d="M374.608 239.297C375.644 239.297 376.484 238.106 376.484 236.636C376.484 235.166 375.644 233.974 374.608 233.974C373.572 233.974 372.732 235.166 372.732 236.636C372.732 238.106 373.572 239.297 374.608 239.297Z" fill="#F1F1F1"/>
<path id="Vector_27" d="M380.706 239.297C381.742 239.297 382.582 238.106 382.582 236.636C382.582 235.166 381.742 233.974 380.706 233.974C379.67 233.974 378.83 235.166 378.83 236.636C378.83 238.106 379.67 239.297 380.706 239.297Z" fill="#101010"/>
<path id="Vector_28" d="M451.372 148.917C446.492 153.068 437.799 158.269 428.916 152.924L423.173 149.468L434.681 131.169C425.498 116.807 420.418 98.1051 420.432 78.7151C420.446 59.3251 425.553 40.6384 434.756 26.3023C443.96 11.9663 456.599 3.00991 470.207 1.1814C483.816 -0.647114 497.416 4.78347 508.353 16.4132C519.291 28.0429 526.78 45.037 529.361 64.0784C531.941 83.1198 529.427 102.842 522.308 119.395C515.19 135.948 503.978 148.144 490.862 153.603C477.746 159.061 463.666 157.391 451.372 148.917V148.917Z" fill="white"/>
<path id="Vector_29" d="M451.402 149.903C446.713 153.808 437.782 159.204 428.676 153.724L422.146 149.795L433.858 131.172C426.57 119.544 421.872 105.118 420.353 89.7098C418.835 74.3016 420.564 58.6006 425.324 44.584C430.083 30.5674 437.661 18.8621 447.101 10.9423C456.541 3.02237 467.422 -0.757914 478.374 0.0774701C489.326 0.912855 499.858 6.32655 508.646 15.6368C517.433 24.947 524.081 37.7374 527.754 52.3972C531.426 67.057 531.959 82.9305 529.284 98.0188C526.61 113.107 520.848 126.735 512.724 137.187V137.187C504.565 147.748 494.364 154.602 483.436 156.868C472.507 159.135 461.35 156.709 451.402 149.903H451.402ZM515.645 27.0048C510.851 19.503 505.062 13.4143 498.609 9.08643C492.156 4.75859 485.166 2.27642 478.036 1.78167C470.907 1.28693 463.779 2.7893 457.059 6.203C450.339 9.61669 444.159 14.8748 438.871 21.6771C433.584 28.4793 429.293 36.6925 426.244 45.8474C423.195 55.0023 421.447 64.9197 421.1 75.0331C420.753 85.1465 421.814 95.2577 424.222 104.789C426.63 114.321 430.338 123.086 435.135 130.585L435.506 131.165L424.201 149.142L429.155 152.123C437.949 157.415 446.652 151.918 451.056 148.17L451.341 147.928L451.64 148.134C462.994 155.96 475.915 157.935 488.184 153.719C500.452 149.504 511.304 139.361 518.876 125.032C526.447 110.704 530.266 93.0829 529.676 75.1953C529.087 57.3077 524.126 40.2692 515.645 27.0049L515.645 27.0048Z" fill="#101010"/>
<path id="Vector_30" opacity="0.1" d="M521.787 78.309C521.786 60.3796 517.053 43.1004 508.52 29.8741C499.986 16.6478 488.271 8.43313 475.681 6.84769C477.155 6.66463 478.645 6.56559 480.151 6.56559C493.56 6.57706 506.416 14.1408 515.894 27.594C525.372 41.0473 530.697 59.2889 530.697 78.309C530.697 97.329 525.372 115.571 515.894 129.024C506.416 142.477 493.56 150.041 480.151 150.052C478.647 150.052 477.159 149.952 475.688 149.769C488.277 148.182 499.99 139.966 508.522 126.74C517.054 113.514 521.786 96.2366 521.787 78.309Z" fill="black"/>
<path id="Vector_31" d="M482.527 64.0024H446.388V68.763H482.527V64.0024Z" fill="#101010"/>
<path id="Vector_32" d="M509.375 80.471H446.388V85.2317H509.375V80.471Z" fill="#101010"/>
<path id="Vector_33" d="M509.314 96.9397H446.388V101.7H509.314V96.9397Z" fill="#101010"/>
<path id="Vector_34" d="M234.304 411.716H0.613363C0.450689 411.716 0.294677 411.624 0.179649 411.461C0.0646215 411.298 0 411.076 0 410.846C0 410.615 0.0646215 410.393 0.179649 410.23C0.294677 410.067 0.450689 409.975 0.613363 409.975H234.304C234.467 409.975 234.623 410.067 234.738 410.23C234.853 410.393 234.918 410.615 234.918 410.846C234.918 411.076 234.853 411.298 234.738 411.461C234.623 411.624 234.467 411.716 234.304 411.716Z" fill="#CBCBCB"/>
<path id="Vector_35" d="M144.183 65.4216C143.677 62.1628 142.032 59.4628 140.137 57.4855C137.014 54.2258 133.183 52.6235 129.312 52.9574C125.441 53.2913 121.776 55.5403 118.954 59.3128C117.377 61.2886 116.24 63.8735 115.682 66.7513C115.416 68.1896 115.402 69.6985 115.64 71.1464C115.879 72.5943 116.364 73.9374 117.053 75.0589L117.312 75.2895C117.077 73.8731 117.853 72.4577 118.779 71.8327C119.743 71.331 120.749 71.011 121.771 70.881C123.318 70.4663 124.785 69.5853 126.071 68.2977C127.357 67.0101 128.434 65.3457 129.228 63.4172C129.816 65.7908 130.756 67.9582 131.984 69.7736C133.212 71.5891 134.7 73.0104 136.347 73.9421C138.065 74.8949 142.783 76.2052 144.418 74.9955C146.504 73.4525 144.69 68.6804 144.183 65.4216Z" fill="#2F2E41"/>
</g>
<defs>
<clipPath id="clip0">
<rect width="533" height="413" fill="white"/>
</clipPath>
</defs>
</svg>
